<svg width="375" height="446" viewBox="0 0 375 446" fill="none" xmlns="http://www.w3.org/2000/svg">
<g clip-path="url(#clip0_13456_2271)">
<rect width="375" height="283" fill="#6437FF"/>
<path d="M375 133.45C367.712 125.781 357.414 121 346 121C323.909 121 306 138.909 306 161C306 183.091 323.909 201 346 201C357.414 201 367.712 196.219 375 188.55V133.45Z" fill="#5837DC"/>
<path d="M358.932 167.403L368.45 169.03L369.771 161.303L350.999 158.093L363.085 147.199L351.262 145.177L334.514 160.26L333.793 143.845L325.196 142.375L326.481 167.485L338.304 169.507L346.475 162.149L354.851 174.648L341.804 172.416L340.483 180.143L364.696 184.284C365.998 182.269 366.124 182.082 367.426 180.067L358.924 167.391L358.932 167.403Z" fill="#6437FF"/>
<path d="M121.062 218.021C118.196 224.504 113.839 230.218 108.346 234.698C101.8 240.083 93.8849 243.539 85.4862 244.68C77.0874 245.82 68.537 244.6 60.7926 241.156C54.3096 238.29 48.5954 233.933 44.1152 228.44L13.9906 225.504C13.1704 225.425 12.7935 224.443 13.3495 223.834L33.7724 201.496C33.4264 194.416 34.7575 187.355 37.6574 180.887C41.1079 173.145 46.6456 166.517 53.6502 161.744C60.6549 156.972 68.8499 154.244 77.3173 153.866C84.3972 153.52 91.4586 154.852 97.9266 157.751L100.38 158.844C110.355 163.961 118.091 172.577 122.109 183.044C126.127 193.51 126.143 205.09 122.154 215.568L121.062 218.021Z" fill="#5837DC"/>
<path d="M0 66.6852L64.8692 44.7863C67.0252 44.0743 69.3522 45.2117 70.0641 47.3677L83.7376 87.8534C84.4496 90.0094 83.3122 92.3363 81.1562 93.0483L22.4799 112.85C21.5486 113.155 20.7437 113.78 20.2536 114.641L12.9208 127.059C11.1276 130.077 6.62134 129.623 5.4973 126.294L0 110.001V66.6852Z" fill="#8364FF"/>
<path d="M34.0819 86.098C33.6451 84.8253 33.6241 83.571 34.0173 82.3536C34.4104 81.1363 35.3011 79.8698 36.7067 78.5744L39.4942 76.0376C40.0758 75.4726 40.4863 74.911 40.7053 74.3698C40.9243 73.8285 40.9346 73.2873 40.755 72.7479C40.3942 71.6876 39.6566 71.0237 38.5249 70.7359C37.3932 70.4481 35.9567 70.6004 34.217 71.1744C32.4773 71.7483 31.1285 72.6188 30.3279 73.7251C29.5461 74.833 29.2643 76.079 29.5372 77.4866L21.3257 80.2128C20.3843 76.7268 20.8519 73.6094 22.7286 70.8606C24.6053 68.1118 27.6935 66.0317 31.9556 64.6172C36.2177 63.2026 39.8863 62.9127 42.8623 63.7949C45.8382 64.6771 47.8458 66.6319 48.9022 69.6795C49.4132 71.1831 49.452 72.6633 49.0186 74.1201C48.5835 75.5955 47.6435 76.9884 46.1953 78.3361L43.1899 81.1899C42.6509 81.7026 42.283 82.2119 42.0673 82.7161C41.8516 83.2203 41.8601 83.7631 42.0552 84.3413L42.2813 84.997L34.7927 87.4886C34.6055 87.2476 34.4748 87.0116 34.3628 86.7773C34.2509 86.543 34.1562 86.3289 34.0819 86.098ZM42.1888 97.1018C40.7618 97.5728 39.4548 97.5497 38.3037 97.0546C37.1354 96.5392 36.3422 95.646 35.89 94.3345C35.4377 93.0231 35.5092 91.7957 36.1199 90.6912C36.7306 89.5867 37.7478 88.8175 39.1764 88.328C40.6051 87.8385 41.8917 87.8784 43.0411 88.3921C44.1906 88.9058 44.9804 89.8361 45.4515 91.1492C45.9226 92.4623 45.8168 93.6492 45.2266 94.7369C44.6363 95.8246 43.6175 96.6123 42.1905 97.0833L42.1888 97.1018Z" fill="#A799FF"/>
<path d="M305.507 105.982L71.9888 121.698L75.5815 175.296L309.082 159.311L305.507 105.982Z" fill="#191919"/>
<path d="M107.347 135.295L104.75 135.468C106.17 136.754 106.959 138.251 107.081 140.136C107.252 142.599 106.475 144.672 104.75 146.355C103.025 148.078 100.346 149.034 96.7407 149.276C93.1356 149.518 90.2993 148.926 88.4058 147.445C86.4727 146.019 85.4205 144.067 85.2627 141.591C85.1409 139.72 85.6693 138.122 86.9 136.662L84.3442 136.835L83.9138 130.482L91.2181 129.996L90.9749 126.295L99.4225 125.725L99.6657 129.427L106.93 128.942L107.36 135.295L107.347 135.295ZM113.4 163.163L112.986 156.998L88.3289 158.656L87.8642 151.805L120.511 149.611L121.39 162.64L113.4 163.176L113.4 163.163ZM96.3297 143.327C97.2443 143.259 98.048 142.978 98.6997 142.429C99.3118 141.935 99.5693 141.136 99.4991 140.033C99.4318 139.117 99.0718 138.449 98.445 137.946C97.779 137.525 96.941 137.308 95.9321 137.377C94.9233 137.446 94.0799 137.782 93.5217 138.275C92.9244 138.863 92.6925 139.567 92.7464 140.483C92.8163 141.573 93.1911 142.336 93.857 142.743C94.5236 143.205 95.3206 143.382 96.3295 143.313L96.3297 143.327ZM124.502 131.74L125.036 139.641C124.673 139.66 124.217 139.747 123.719 139.782C123.168 139.871 122.631 139.946 122.134 140.075C121.598 140.204 121.087 140.279 120.645 140.407C120.337 140.519 120.109 140.63 119.936 140.727L120.421 148.036L112.471 148.571L110.971 126.322L118.921 125.787L119.42 133.149C119.899 132.792 120.474 132.527 121.238 132.247C122.042 132.006 123.144 131.841 124.503 131.754L124.502 131.74Z" fill="white"/>
<path d="M127.38 161.622L126.895 154.313L131.832 153.984L131.006 141.79L138.996 141.254L139.823 153.448L143.939 153.172L143.112 140.977L151.103 140.441L151.929 152.636L164.668 151.774L165.153 159.082L127.38 161.622ZM153.651 147.046C153.651 144.297 153.596 141.536 153.501 138.748C153.367 136.002 153.235 133.444 153.078 131.061L127.681 132.771L127.197 125.462L160.583 123.217L161.05 130.162C161.148 132.262 161.23 134.188 161.311 136.019C161.392 137.85 161.459 139.641 161.524 141.284C161.549 143.022 161.535 144.773 161.547 146.511L153.651 147.046Z" fill="white"/>
<path d="M193.817 121.58L194.282 128.431L184.597 129.086L185.961 149.424L190.615 149.113C191.705 149.043 192.807 148.919 193.894 148.66C194.942 148.496 195.841 148.254 196.549 147.934L196.983 154.462C196.33 154.97 195.433 155.307 194.345 155.511C193.164 155.771 192.035 155.896 190.892 155.967L178.422 156.811L176.129 122.771L193.804 121.58L193.817 121.58ZM207.768 140.788C207.004 141.029 206.146 141.27 205.232 141.365L206.285 157.046L199.021 157.53L196.536 120.556L203.8 120.071L204.713 133.598L207.269 133.426L206.355 119.899L213.565 119.415L216.05 156.389L208.84 156.873L207.755 140.789L207.768 140.788Z" fill="white"/>
<path d="M239.961 126.138L237.271 126.313C238.729 127.504 239.559 129 239.68 130.79C239.835 133.079 239.001 134.964 237.22 136.513C235.398 138.102 232.759 139.017 229.289 139.244C225.818 139.47 222.983 138.933 221.064 137.601C219.052 136.31 218.017 134.547 217.862 132.259C217.741 130.482 218.323 128.884 219.649 127.503L216.959 127.678L216.545 121.553L223.85 121.068L223.607 117.366L232.054 116.797L232.297 120.498L239.561 120.014L239.975 126.138L239.961 126.138ZM228.895 133.537C229.944 133.468 230.748 133.186 231.36 132.679C231.878 132.186 232.151 131.576 232.099 130.741C232.046 129.906 231.687 129.305 231.046 128.789C230.38 128.368 229.542 128.152 228.534 128.22C227.525 128.289 226.681 128.625 226.123 129.118C225.526 129.707 225.293 130.37 225.346 131.191C225.398 132.012 225.716 132.587 226.342 133.009C226.927 133.431 227.805 133.594 228.895 133.524L228.895 133.537Z" fill="white"/>
<path d="M257.067 121.91L257.601 129.811C257.238 129.83 256.781 129.918 256.283 129.952C255.733 130.041 255.195 130.116 254.699 130.245C254.162 130.374 253.652 130.449 253.209 130.577C252.901 130.689 252.674 130.8 252.5 130.897L252.985 138.206L245.035 138.741L243.602 117.407L251.552 116.872L251.984 123.319C252.464 122.962 253.039 122.697 253.802 122.417C254.607 122.176 255.708 122.011 257.067 121.924L257.067 121.91Z" fill="white"/>
<path d="M278.326 115.425L278.587 119.396C278.553 121.687 278.114 123.876 277.283 125.95C277.049 126.465 276.801 126.994 276.567 127.564C277.001 127.813 277.423 128.103 277.858 128.393C279.79 129.779 281.537 131.357 283.126 133.139L278.205 139.113C276.618 137.425 275.007 135.927 273.452 134.562C273.016 134.218 272.54 133.888 272.104 133.558C271.028 134.544 269.897 135.45 268.671 136.317C266.658 137.694 264.52 138.804 262.284 139.645L257.975 134.198C261.185 132.696 263.907 131.039 266.128 129.146C268.296 127.349 269.815 125.36 270.686 123.285L258.903 124.08L258.418 116.771L278.326 115.425ZM269.592 140.345L269.939 145.595L295.833 143.851L296.298 150.702L262.413 152.982L261.601 140.868L269.592 140.332L269.592 140.345ZM286.225 127.838C286.052 127.949 285.783 128.007 285.406 128.026C285.004 128.139 284.588 128.213 284.184 128.246C283.728 128.32 283.27 128.354 282.867 128.387C282.41 128.461 282.047 128.493 281.778 128.51L280.769 128.579L280.284 121.27L285.759 120.906L285.329 114.607L293.32 114.071L295.045 139.753L287.055 140.289L286.225 127.865L286.225 127.838Z" fill="white"/>
<path d="M240.846 168.769C248.695 168.555 254.885 162.015 254.671 154.161C254.458 146.307 247.922 140.114 240.073 140.328C232.224 140.542 226.034 147.082 226.248 154.936C226.461 162.789 232.997 168.983 240.846 168.769Z" fill="#FBFF3E"/>
<mask id="mask0_13456_2271" style="mask-type:luminance" maskUnits="userSpaceOnUse" x="235" y="144" width="13" height="15">
<path d="M235.205 146.034L237.678 158.863L247.296 157.005L244.823 144.176L235.205 146.034Z" fill="white"/>
</mask>
<g mask="url(#mask0_13456_2271)">
<path d="M238.049 148.659C237.559 148.757 237.134 148.69 236.776 148.458C236.418 148.226 236.196 147.901 236.103 147.447C236.011 146.993 236.097 146.595 236.351 146.241C236.602 145.91 236.976 145.673 237.453 145.585C237.943 145.487 238.367 145.554 238.712 145.795C239.07 146.027 239.288 146.375 239.381 146.829C239.473 147.283 239.378 147.667 239.137 148.012C238.886 148.343 238.525 148.571 238.049 148.659Z" fill="#191919"/>
<path d="M243.127 147.681C242.637 147.778 242.213 147.711 241.855 147.479C241.497 147.247 241.274 146.923 241.182 146.468C241.09 146.014 241.175 145.617 241.43 145.263C241.681 144.932 242.055 144.695 242.532 144.606C243.008 144.518 243.432 144.585 243.79 144.817C244.148 145.049 244.367 145.397 244.459 145.851C244.552 146.305 244.466 146.702 244.215 147.033C243.965 147.364 243.604 147.592 243.127 147.681Z" fill="#191919"/>
<path d="M239.827 157.869C239.032 157.639 238.367 157.22 237.84 156.626C237.314 156.032 236.958 155.281 236.782 154.386C236.607 153.492 236.655 152.662 236.936 151.912C237.204 151.171 237.664 150.536 238.313 150.031C238.962 149.526 239.781 149.183 240.738 148.983C241.692 148.806 242.561 148.827 243.356 149.057C244.151 149.288 244.816 149.707 245.342 150.301C245.883 150.886 246.225 151.646 246.4 152.54C246.576 153.435 246.528 154.264 246.246 155.015C245.979 155.756 245.505 156.4 244.865 156.918C244.226 157.437 243.407 157.78 242.44 157.966C241.487 158.143 240.617 158.123 239.823 157.892L239.827 157.869ZM242.894 154.768C243.151 154.592 243.325 154.353 243.426 154.065C243.527 153.777 243.537 153.471 243.464 153.104C243.391 152.736 243.255 152.451 243.074 152.216C242.88 151.991 242.637 151.84 242.322 151.757C242.007 151.675 241.666 151.671 241.262 151.749C240.858 151.827 240.541 151.945 240.279 152.145C240.032 152.335 239.857 152.574 239.77 152.853C239.669 153.141 239.669 153.46 239.733 153.814C239.796 154.168 239.932 154.453 240.126 154.678C240.32 154.903 240.563 155.055 240.865 155.146C241.18 155.229 241.521 155.233 241.925 155.155C242.316 155.086 242.646 154.959 242.908 154.759L242.894 154.768Z" fill="#191919"/>
</g>
<g clip-path="url(#clip1_13456_2271)">
<path d="M258.631 85.1036C257.087 82.2194 254.83 79.9125 251.911 78.2532C249.156 76.6835 245.939 75.8057 242.355 75.6313C238.77 75.457 235.518 76.0228 232.62 77.3165C231.486 77.8245 230.434 78.4246 229.466 79.1236C229.389 79.0318 229.32 78.9336 229.244 78.8485C227.444 76.8358 224.985 75.6937 222.128 75.5575C220.834 75.4897 219.603 75.6548 218.456 76.0203L218.609 72.8332C218.755 69.6593 216.316 66.9713 213.149 66.8189L203.77 66.3611C203.056 66.3237 202.368 66.4295 201.729 66.6392C201.108 66.3702 200.435 66.1998 199.721 66.1624L190.342 65.7046C187.175 65.5522 184.487 67.9917 184.334 71.1585L184.21 73.7865L180.839 74.1772C178.474 73.04 175.792 72.3929 172.814 72.2503C169.257 72.0773 165.919 72.6117 162.902 73.8451C162.771 73.899 162.646 73.96 162.522 74.0143C162.318 73.524 162.052 73.0508 161.709 72.6275C160.669 71.3368 159.142 70.5746 157.519 70.4895C157.215 70.4736 156.918 70.485 156.612 70.5163L146.706 71.6115C144.566 71.8506 142.769 73.2628 142.003 75.2492L141.357 74.0467C140.397 72.2536 138.572 71.1244 136.577 71.0267C136.281 71.0111 135.976 71.0222 135.671 71.0535L125.398 72.1903C123.448 72.4056 121.75 73.6001 120.881 75.3581C120.012 77.1162 120.106 79.1948 121.119 80.8691L129.551 95.1451C124.461 95.7295 122.536 99.3304 122.91 102.768L123.514 108.258C123.715 110.092 124.792 111.716 126.393 112.624C128.374 113.741 130.414 114.523 132.452 114.934C133.355 115.116 134.314 115.234 135.298 115.279C136.518 115.343 137.817 115.296 139.162 115.144C141.16 114.924 143.127 114.385 145.009 113.538C147.07 112.606 148.947 111.218 150.576 109.392C152.176 107.591 153.443 105.341 154.324 102.712L154.643 101.77L155.914 101.62C157.463 103.397 159.357 104.881 161.593 106.038C164.533 107.563 167.912 108.43 171.625 108.604C174.623 108.748 177.466 108.518 180.071 107.912C181.473 107.587 182.826 107.151 184.11 106.631C185.101 107.831 186.572 108.637 188.256 108.719L211.071 109.827C212.579 109.906 213.972 109.378 215.039 108.481C216.576 109.561 218.408 110.184 220.436 110.284C223.293 110.42 225.853 109.527 227.84 107.693C227.975 107.565 228.097 107.429 228.225 107.301C229.085 108.042 230.016 108.712 231.039 109.299C233.799 110.89 237.022 111.781 240.627 111.957C244.231 112.132 247.491 111.553 250.39 110.232C253.442 108.846 255.908 106.766 257.719 104.051C259.508 101.368 260.497 98.2182 260.668 94.6943C260.839 91.1705 260.157 87.9464 258.638 85.0972L258.631 85.1036Z" fill="white"/>
<path d="M137.916 97.5425L126.01 77.8966L136.283 76.7598L146.892 96.5538L137.916 97.5425Z" fill="#191919"/>
<path d="M138.529 109.443C136.681 109.65 135.028 109.604 133.584 109.312C132.134 109.02 130.677 108.457 129.208 107.63L128.507 101.271C129.963 101.989 131.295 102.478 132.504 102.73C133.713 102.983 135.015 103.031 136.401 102.88C137.542 102.751 138.513 102.403 139.314 101.817C140.114 101.231 140.727 100.243 141.151 98.8468L147.318 77.3245L157.225 76.2292L148.887 100.88C148.247 102.792 147.381 104.361 146.29 105.581C145.199 106.8 143.99 107.709 142.655 108.315C141.319 108.914 139.942 109.294 138.529 109.45L138.529 109.443Z" fill="#191919"/>
<path d="M171.898 102.876C169.001 102.738 166.447 102.091 164.231 100.941C162.015 99.7917 160.299 98.2427 159.077 96.3008C157.855 94.3588 157.31 92.1214 157.429 89.608C157.547 87.0946 158.29 85.026 159.648 83.2261C161.005 81.4328 162.812 80.0752 165.062 79.1596C167.312 78.244 169.799 77.8475 172.534 77.9841C175.404 78.121 177.818 78.8487 179.776 80.1604C181.74 81.4725 183.206 83.2853 184.172 85.5921C185.139 87.8989 185.552 90.5821 185.406 93.6411L164.963 92.6508L165.224 87.2808L180.263 88.0082L177.431 89.7174C177.372 88.647 177.144 87.7231 176.745 86.9524C176.346 86.1817 175.79 85.5851 175.089 85.1701C174.381 84.7548 173.542 84.5217 172.559 84.4701C171.44 84.4115 170.472 84.5904 169.661 84.987C168.85 85.3835 168.211 85.9648 167.746 86.724C167.287 87.4835 167.032 88.355 166.981 89.3386C166.908 90.733 167.163 91.9217 167.733 92.9041C168.302 93.8931 169.201 94.6697 170.434 95.2342C171.668 95.7988 173.211 96.1296 175.07 96.2203C176.761 96.3089 178.45 96.1812 180.136 95.8508C181.822 95.5203 183.369 94.9934 184.771 94.2699L184.487 100.084C182.766 101.095 180.862 101.847 178.769 102.331C176.677 102.816 174.391 103 171.904 102.884L171.898 102.876Z" fill="#191919"/>
<path d="M190.061 71.4451L199.44 71.9029L197.908 103.449L188.53 102.992L190.061 71.4451Z" fill="#191919"/>
<path d="M203.49 72.0948L212.869 72.5526L211.337 104.099L201.958 103.641L203.49 72.0948Z" fill="#191919"/>
<path d="M220.716 104.55C219.429 104.483 218.4 104.023 217.634 103.166C216.868 102.308 216.513 101.229 216.574 99.9422C216.642 98.6286 217.096 97.5851 217.94 96.8052C218.785 96.0254 219.858 95.6628 221.145 95.7302C222.431 95.7977 223.495 96.2587 224.26 97.1162C225.026 97.9736 225.381 99.0663 225.312 100.373C225.245 101.66 224.799 102.697 223.947 103.476C223.103 104.256 222.023 104.618 220.709 104.55L220.716 104.55ZM224.657 89.031C225.502 88.2512 225.961 87.2147 226.022 85.9277C226.091 84.6141 225.736 83.5282 224.97 82.6707C224.204 81.8133 223.162 81.3466 221.854 81.2848C220.547 81.2231 219.502 81.5803 218.65 82.3598C217.805 83.1396 217.345 84.1896 217.283 85.4968C217.216 86.7834 217.572 87.8559 218.344 88.7204C219.11 89.5779 220.139 90.0439 221.426 90.1046C222.713 90.1653 223.819 89.8112 224.664 89.0314L224.657 89.031Z" fill="#191919"/>
<path d="M240.9 106.229C238.204 106.101 235.874 105.466 233.9 104.329C231.933 103.192 230.426 101.661 229.385 99.7355C228.344 97.8098 227.886 95.6039 228.009 93.1178C228.133 90.6317 228.8 88.4781 230.023 86.6643C231.246 84.8505 232.892 83.4777 234.96 82.5526C237.035 81.6278 239.4 81.2249 242.075 81.3583C244.75 81.4917 247.101 82.1149 249.069 83.238C251.037 84.3611 252.537 85.8853 253.571 87.8106C254.599 89.7356 255.05 91.9411 254.934 94.4275C254.81 96.9136 254.15 99.0677 252.94 100.882C251.731 102.697 250.091 104.077 248.016 105.015C245.947 105.953 243.574 106.363 240.906 106.23L240.9 106.229ZM241.258 99C242.464 99.0632 243.506 98.9016 244.37 98.5348C245.24 98.1684 245.911 97.6024 246.39 96.8439C246.876 96.0858 247.14 95.1674 247.19 94.0893C247.247 92.9912 247.068 92.0361 246.657 91.231C246.254 90.4263 245.638 89.7996 244.81 89.3509C243.983 88.9023 242.963 88.6462 241.757 88.583C240.551 88.5198 239.502 88.681 238.619 89.0467C237.742 89.4128 237.057 89.9781 236.578 90.7366C236.099 91.495 235.827 92.4265 235.777 93.5249C235.726 94.6233 235.901 95.5376 236.304 96.3423C236.708 97.1471 237.337 97.7745 238.171 98.2235C239.006 98.6725 240.039 98.9293 241.246 98.9858L241.258 99Z" fill="#191919"/>
</g>
<g clip-path="url(#clip2_13456_2271)">
<path d="M307.909 80.4975L288.747 98.5555L301.945 103.746L298.632 116.657L318.261 99.3951L304.484 93.8476L307.909 80.4975Z" fill="#FFF33E"/>
</g>
<g clip-path="url(#clip3_13456_2271)">
<path d="M65.1286 155.044L58.6 175.549L70.0899 174.022L72.8451 184.562L80.0231 164.44L67.9776 165.942L65.1286 155.044Z" fill="#FFF33E"/>
</g>
<ellipse cx="187.5" cy="283" rx="187.5" ry="60" fill="#191919"/>
<rect y="283" width="375" height="163" fill="#191919"/>
<path d="M297.584 222.7C297.115 221.735 296.462 220.873 295.661 220.163C294.86 219.454 293.927 218.911 292.916 218.566C291.905 218.221 290.835 218.081 289.768 218.153C288.7 218.224 287.656 218.507 286.695 218.985L284.701 219.976L283.728 217.973C282.781 216.023 281.102 214.536 279.06 213.84C277.018 213.143 274.78 213.293 272.839 214.257C270.898 215.222 269.413 216.921 268.71 218.981C268.007 221.041 268.144 223.294 269.091 225.244L270.063 227.247L277.204 241.948L291.841 234.677L293.836 233.686C294.797 233.209 295.656 232.546 296.365 231.736C297.074 230.925 297.618 229.983 297.966 228.963C298.314 227.943 298.459 226.864 298.394 225.79C298.328 224.715 298.053 223.665 297.584 222.7Z" fill="#8364FF"/>
</g>
<defs>
<clipPath id="clip0_13456_2271">
<rect width="375" height="446" fill="white"/>
</clipPath>
<clipPath id="clip1_13456_2271">
<rect width="141.079" height="52.4747" fill="white" transform="translate(121.102 61.9949) rotate(3)"/>
</clipPath>
<clipPath id="clip2_13456_2271">
<rect width="28.7975" height="37.3303" fill="white" transform="translate(294.277 77) rotate(14.3894)"/>
</clipPath>
<clipPath id="clip3_13456_2271">
<rect width="23.5363" height="30.5102" fill="white" transform="translate(54 157.953) rotate(-14.6501)"/>
</clipPath>
</defs>
</svg>
