<svg width="375" height="446" viewBox="0 0 375 446" fill="none" xmlns="http://www.w3.org/2000/svg">
<g clip-path="url(#clip0_13456_2271)">
<rect width="375" height="283" fill="#6437FF"/>
<path d="M375 133.45C367.712 125.781 357.414 121 346 121C323.909 121 306 138.909 306 161C306 183.091 323.909 201 346 201C357.414 201 367.712 196.219 375 188.55V133.45Z" fill="#5837DC"/>
<path d="M358.932 167.403L368.45 169.03L369.771 161.303L350.999 158.093L363.085 147.199L351.262 145.177L334.514 160.26L333.793 143.845L325.196 142.375L326.481 167.485L338.304 169.507L346.475 162.149L354.851 174.648L341.804 172.416L340.483 180.143L364.696 184.284C365.998 182.269 366.124 182.082 367.426 180.067L358.924 167.391L358.932 167.403Z" fill="#6437FF"/>
<path d="M121.062 218.021C118.196 224.504 113.839 230.218 108.346 234.698C101.8 240.083 93.8849 243.539 85.4862 244.68C77.0874 245.82 68.537 244.6 60.7926 241.156C54.3096 238.29 48.5954 233.933 44.1152 228.44L13.9906 225.504C13.1704 225.425 12.7935 224.443 13.3495 223.834L33.7724 201.496C33.4264 194.416 34.7575 187.355 37.6574 180.887C41.1079 173.145 46.6456 166.517 53.6502 161.744C60.6549 156.972 68.8499 154.244 77.3173 153.866C84.3972 153.52 91.4586 154.852 97.9266 157.751L100.38 158.844C110.355 163.961 118.091 172.577 122.109 183.044C126.127 193.51 126.143 205.09 122.154 215.568L121.062 218.021Z" fill="#5837DC"/>
<path d="M0 66.6852L64.8692 44.7863C67.0252 44.0743 69.3522 45.2117 70.0641 47.3677L83.7376 87.8534C84.4496 90.0094 83.3122 92.3363 81.1562 93.0483L22.4799 112.85C21.5486 113.155 20.7437 113.78 20.2536 114.641L12.9208 127.059C11.1276 130.077 6.62134 129.623 5.4973 126.294L0 110.001V66.6852Z" fill="#8364FF"/>
<path d="M34.0819 86.098C33.6451 84.8253 33.6241 83.571 34.0173 82.3536C34.4104 81.1363 35.3011 79.8698 36.7067 78.5744L39.4942 76.0376C40.0758 75.4726 40.4863 74.911 40.7053 74.3698C40.9243 73.8285 40.9346 73.2873 40.755 72.7479C40.3942 71.6876 39.6566 71.0237 38.5249 70.7359C37.3932 70.4481 35.9567 70.6004 34.217 71.1744C32.4773 71.7483 31.1285 72.6188 30.3279 73.7251C29.5461 74.833 29.2643 76.079 29.5372 77.4866L21.3257 80.2128C20.3843 76.7268 20.8519 73.6094 22.7286 70.8606C24.6053 68.1118 27.6935 66.0317 31.9556 64.6172C36.2177 63.2026 39.8863 62.9127 42.8623 63.7949C45.8382 64.6771 47.8458 66.6319 48.9022 69.6795C49.4132 71.1831 49.452 72.6633 49.0186 74.1201C48.5835 75.5955 47.6435 76.9884 46.1953 78.3361L43.1899 81.1899C42.6509 81.7026 42.283 82.2119 42.0673 82.7161C41.8516 83.2203 41.8601 83.7631 42.0552 84.3413L42.2813 84.997L34.7927 87.4886C34.6055 87.2476 34.4748 87.0116 34.3628 86.7773C34.2509 86.543 34.1562 86.3289 34.0819 86.098ZM42.1888 97.1018C40.7618 97.5728 39.4548 97.5497 38.3037 97.0546C37.1354 96.5392 36.3422 95.646 35.89 94.3345C35.4377 93.0231 35.5092 91.7957 36.1199 90.6912C36.7306 89.5867 37.7478 88.8175 39.1764 88.328C40.6051 87.8385 41.8917 87.8784 43.0411 88.3921C44.1906 88.9058 44.9804 89.8361 45.4515 91.1492C45.9226 92.4623 45.8168 93.6492 45.2266 94.7369C44.6363 95.8246 43.6175 96.6123 42.1905 97.0833L42.1888 97.1018Z" fill="#A799FF"/>
<ellipse cx="187.5" cy="283" rx="187.5" ry="60" fill="#191919"/>
<rect y="283" width="375" height="163" fill="#191919"/>
<path d="M297.584 222.7C297.115 221.735 296.462 220.873 295.661 220.163C294.86 219.454 293.927 218.911 292.916 218.566C291.905 218.221 290.835 218.081 289.768 218.153C288.7 218.224 287.656 218.507 286.695 218.985L284.701 219.976L283.728 217.973C282.781 216.023 281.102 214.536 279.06 213.84C277.018 213.143 274.78 213.293 272.839 214.257C270.898 215.222 269.413 216.921 268.71 218.981C268.007 221.041 268.144 223.294 269.091 225.244L270.063 227.247L277.204 241.948L291.841 234.677L293.836 233.686C294.797 233.209 295.656 232.546 296.365 231.736C297.074 230.925 297.618 229.983 297.966 228.963C298.314 227.943 298.459 226.864 298.394 225.79C298.328 224.715 298.053 223.665 297.584 222.7Z" fill="#8364FF"/>
</g>
<defs>
<clipPath id="clip0_13456_2271">
<rect width="375" height="446" fill="white"/>
</clipPath>
</defs>
</svg>
