<svg width="270" height="128" viewBox="0 0 270 128" fill="none" xmlns="http://www.w3.org/2000/svg">
<path d="M252.507 45.9821L18.9888 61.698L22.5815 115.296L256.082 99.311L252.507 45.9821Z" fill="#191919"/>
<path d="M54.3466 75.2951L51.7504 75.4682C53.1698 76.7541 53.9594 78.2515 54.0815 80.1359C54.2525 82.599 53.4752 84.6719 51.7496 86.3547C50.0246 88.0779 47.3457 89.0337 43.7407 89.2757C40.1356 89.5177 37.2993 88.9265 35.4058 87.4455C33.4727 86.019 32.4205 84.0675 32.2627 81.5907C32.1409 79.7197 32.6693 78.122 33.9 76.6622L31.3442 76.8347L30.9138 70.4817L38.2181 69.9963L37.9749 66.2947L46.4225 65.7251L46.6657 69.4266L53.9296 68.9418L54.3601 75.2949L54.3466 75.2951ZM60.4 103.163L59.9858 96.998L35.3289 98.6564L34.8642 91.8054L67.5113 89.611L68.3904 102.64L60.4002 103.176L60.4 103.163ZM43.3297 83.3266C44.2443 83.2592 45.048 82.9778 45.6997 82.4292C46.3118 81.9351 46.5693 81.1364 46.4991 80.0326C46.4318 79.1174 46.0718 78.4491 45.445 77.9464C44.779 77.5251 43.941 77.3084 42.9321 77.3773C41.9233 77.4461 41.0799 77.7819 40.5217 78.2753C39.9244 78.8634 39.6925 79.5675 39.7464 80.4829C39.8163 81.5732 40.1911 82.3356 40.857 82.7434C41.5236 83.2051 42.3206 83.382 43.3295 83.3131L43.3297 83.3266ZM71.5024 71.7401L72.0364 79.6411C71.6732 79.6599 71.2167 79.7475 70.719 79.7818C70.1682 79.8708 69.6307 79.9461 69.1344 80.0747C68.5977 80.204 68.0872 80.2789 67.6447 80.4067C67.3367 80.519 67.1094 80.6302 66.9358 80.7271L67.4207 88.0359L59.4708 88.5713L57.9708 66.3221L65.9207 65.7867L66.4199 73.1492C66.8994 72.7918 67.4745 72.5273 68.2378 72.2465C69.0422 72.0056 70.1439 71.8411 71.5026 71.7536L71.5024 71.7401Z" fill="white"/>
<path d="M74.3804 101.622L73.8955 94.3133L78.8323 93.9843L78.0059 81.7896L85.9962 81.2537L86.8226 93.4483L90.9388 93.1718L90.1124 80.9772L98.1027 80.4412L98.9291 92.6358L111.668 91.7735L112.153 99.0824L74.3804 101.622ZM100.651 87.0458C100.651 84.2973 100.596 81.536 100.501 78.7485C100.367 76.0019 100.235 73.4439 100.078 71.0615L74.6815 72.7713L74.1965 65.4625L107.583 63.2166L108.05 70.162C108.148 72.2624 108.23 74.1878 108.311 76.019C108.392 77.8502 108.459 79.6412 108.524 81.2839C108.549 83.0216 108.535 84.7734 108.547 86.5112L100.651 87.0458Z" fill="white"/>
<path d="M140.817 61.5798L141.282 68.4308L131.597 69.0862L132.961 89.4242L137.615 89.1128C138.705 89.0428 139.807 88.9187 140.894 88.6601C141.942 88.4963 142.841 88.254 143.549 87.9336L143.983 94.4618C143.33 94.9699 142.433 95.3066 141.345 95.5113C140.164 95.7713 139.035 95.8958 137.892 95.9666L125.422 96.8114L123.129 62.7713L140.804 61.58L140.817 61.5798ZM154.768 80.7883C154.004 81.0287 153.146 81.2704 152.232 81.3648L153.285 97.0457L146.021 97.5304L143.536 60.556L150.8 60.0712L151.713 73.5984L154.269 73.4258L153.355 59.8986L160.565 59.4146L163.05 96.3891L155.84 96.8731L154.755 80.7885L154.768 80.7883Z" fill="white"/>
<path d="M186.961 66.138L184.271 66.3125C185.729 67.5035 186.559 69.0003 186.68 70.7904C186.835 73.0786 186.001 74.9637 184.22 76.5126C182.398 78.1025 179.759 79.0173 176.289 79.2438C172.818 79.4704 169.983 78.933 168.064 77.6006C166.052 76.31 165.017 74.5469 164.862 72.2587C164.741 70.482 165.323 68.8835 166.649 67.5031L163.959 67.6776L163.545 61.5534L170.85 61.068L170.607 57.3664L179.054 56.7967L179.297 60.4983L186.561 60.0135L186.975 66.1378L186.961 66.138ZM175.895 73.537C176.944 73.4676 177.748 73.1862 178.36 72.6786C178.878 72.1859 179.151 71.5756 179.099 70.741C179.046 69.9064 178.687 69.3054 178.046 68.7895C177.38 68.3682 176.542 68.1515 175.534 68.2204C174.525 68.2892 173.681 68.625 173.123 69.1184C172.526 69.7065 172.293 70.3702 172.346 71.1913C172.398 72.0124 172.716 72.587 173.342 73.0089C173.927 73.4314 174.805 73.5935 175.895 73.5235L175.895 73.537Z" fill="white"/>
<path d="M204.067 61.9103L204.601 69.8112C204.238 69.8301 203.781 69.9177 203.283 69.952C202.733 70.041 202.195 70.1163 201.699 70.2449C201.162 70.3741 200.652 70.4491 200.209 70.5769C199.901 70.6892 199.674 70.8004 199.5 70.8973L199.985 78.2061L192.035 78.7415L190.602 57.4074L198.552 56.872L198.984 63.3194C199.464 62.962 200.039 62.6975 200.802 62.4167C201.607 62.1757 202.708 62.0112 204.067 61.9237L204.067 61.9103Z" fill="white"/>
<path d="M225.326 55.4251L225.587 59.3958C225.553 61.6868 225.114 63.876 224.283 65.9497C224.049 66.4652 223.801 66.9943 223.567 67.5636C224.001 67.8132 224.423 68.1034 224.858 68.3933C226.79 69.7794 228.537 71.3569 230.126 73.1388L225.205 79.113C223.618 77.4254 222.007 75.9267 220.452 74.562C220.016 74.2181 219.54 73.8884 219.104 73.558C218.028 74.544 216.897 75.45 215.671 76.317C213.658 77.6941 211.52 78.8036 209.284 79.6451L204.975 74.1983C208.185 72.6957 210.907 71.0386 213.128 69.1464C215.296 67.3493 216.815 65.3597 217.686 63.2853L205.903 64.0796L205.418 56.7707L225.326 55.4251ZM216.592 80.3453L216.939 85.5948L242.833 83.8506L243.298 90.7017L209.413 92.9818L208.601 80.8678L216.592 80.3318L216.592 80.3453ZM233.225 67.8383C233.052 67.9487 232.783 68.0065 232.406 68.0256C232.004 68.1393 231.588 68.2129 231.184 68.2458C230.728 68.3199 230.27 68.3536 229.867 68.3866C229.41 68.4607 229.047 68.493 228.778 68.5105L227.769 68.5793L227.284 61.2704L232.759 60.9065L232.329 54.6073L240.32 54.0713L242.045 79.7529L234.055 80.2889L233.225 67.8653L233.225 67.8383Z" fill="white"/>
<path d="M187.846 108.769C195.695 108.555 201.885 102.015 201.671 94.1608C201.458 86.3071 194.922 80.1139 187.073 80.3278C179.224 80.5417 173.034 87.0819 173.248 94.9356C173.461 102.789 179.997 108.983 187.846 108.769Z" fill="#FBFF3E"/>
<mask id="mask0_13888_55348" style="mask-type:luminance" maskUnits="userSpaceOnUse" x="182" y="84" width="13" height="15">
<path d="M182.205 86.0343L184.678 98.8632L194.296 97.0052L191.823 84.1763L182.205 86.0343Z" fill="white"/>
</mask>
<g mask="url(#mask0_13888_55348)">
<path d="M185.049 88.659C184.559 88.7567 184.134 88.6895 183.776 88.4576C183.418 88.2256 183.196 87.9008 183.103 87.4468C183.011 86.9927 183.097 86.5954 183.351 86.2414C183.602 85.9102 183.976 85.673 184.453 85.5846C184.943 85.487 185.367 85.5541 185.712 85.7954C186.07 86.0273 186.288 86.375 186.381 86.829C186.473 87.2831 186.378 87.6668 186.137 88.0115C185.886 88.3427 185.525 88.5707 185.049 88.659Z" fill="#191919"/>
<path d="M190.127 87.6807C189.637 87.7784 189.213 87.7113 188.855 87.4793C188.497 87.2474 188.274 86.9225 188.182 86.4684C188.09 86.0144 188.175 85.6171 188.43 85.2631C188.681 84.9319 189.055 84.6947 189.532 84.6063C190.008 84.518 190.432 84.5851 190.79 84.8171C191.148 85.049 191.367 85.3967 191.459 85.8507C191.552 86.3048 191.466 86.7021 191.215 87.0332C190.965 87.3644 190.604 87.5924 190.127 87.6807Z" fill="#191919"/>
<path d="M186.827 97.8694C186.032 97.6388 185.367 97.2197 184.84 96.6258C184.314 96.0319 183.958 95.2808 183.782 94.3862C183.607 93.4916 183.655 92.6623 183.936 91.9119C184.204 91.1707 184.664 90.5361 185.313 90.0311C185.962 89.5261 186.781 89.1827 187.738 88.9832C188.692 88.8065 189.561 88.8267 190.356 89.0573C191.151 89.2879 191.816 89.707 192.342 90.3009C192.883 90.8855 193.225 91.6458 193.4 92.5404C193.576 93.435 193.528 94.2644 193.246 95.0148C192.979 95.756 192.505 96.3998 191.865 96.9184C191.226 97.4369 190.407 97.7803 189.44 97.9663C188.487 98.143 187.617 98.1229 186.823 97.8922L186.827 97.8694ZM189.894 94.7685C190.151 94.592 190.325 94.3529 190.426 94.0647C190.527 93.7765 190.537 93.4713 190.464 93.1035C190.391 92.7357 190.255 92.4507 190.074 92.2164C189.88 91.9913 189.637 91.8398 189.322 91.7575C189.007 91.6752 188.666 91.6707 188.262 91.749C187.858 91.8273 187.541 91.9454 187.279 92.1446C187.032 92.3347 186.857 92.5738 186.77 92.8527C186.669 93.1409 186.669 93.4596 186.733 93.8139C186.796 94.1682 186.932 94.4532 187.126 94.6782C187.32 94.9033 187.563 95.0548 187.865 95.1464C188.18 95.2286 188.521 95.2332 188.925 95.1549C189.316 95.0859 189.646 94.9585 189.908 94.7592L189.894 94.7685Z" fill="#191919"/>
</g>
<g clip-path="url(#clip0_13888_55348)">
<path d="M205.631 25.1036C204.087 22.2194 201.83 19.9125 198.911 18.2532C196.156 16.6835 192.939 15.8057 189.355 15.6313C185.77 15.457 182.518 16.0228 179.62 17.3165C178.486 17.8245 177.434 18.4246 176.466 19.1236C176.389 19.0318 176.32 18.9336 176.244 18.8485C174.444 16.8358 171.985 15.6937 169.128 15.5575C167.834 15.4897 166.603 15.6548 165.456 16.0203L165.609 12.8332C165.755 9.65929 163.316 6.97132 160.149 6.81886L150.77 6.36111C150.056 6.32368 149.368 6.42949 148.729 6.63917C148.108 6.37021 147.435 6.19982 146.721 6.1624L137.342 5.70465C134.175 5.55219 131.487 7.99171 131.334 11.1585L131.21 13.7865L127.839 14.1772C125.474 13.04 122.792 12.3929 119.814 12.2503C116.257 12.0773 112.919 12.6117 109.902 13.8451C109.771 13.899 109.646 13.96 109.522 14.0143C109.318 13.524 109.052 13.0508 108.709 12.6275C107.669 11.3368 106.142 10.5746 104.519 10.4895C104.215 10.4736 103.918 10.485 103.612 10.5163L93.706 11.6115C91.5656 11.8506 89.7691 13.2628 89.003 15.2492L88.3568 14.0467C87.397 12.2536 85.5715 11.1244 83.5772 11.0267C83.2808 11.0111 82.9762 11.0222 82.6706 11.0535L72.3975 12.1903C70.4476 12.4056 68.7503 13.6001 67.8813 15.3581C67.0124 17.1162 67.1061 19.1948 68.1194 20.8691L76.5512 35.1451C71.4611 35.7295 69.5364 39.3304 69.9101 42.7679L70.5141 48.2576C70.7152 50.092 71.7919 51.7155 73.3926 52.6235C75.374 53.7406 77.4135 54.523 79.4522 54.9338C80.3546 55.1162 81.3144 55.2341 82.2983 55.2789C83.5176 55.3428 84.817 55.296 86.1624 55.1436C88.1599 54.9241 90.1268 54.3854 92.0085 53.5384C94.0704 52.6062 95.9467 51.2184 97.5757 49.3921C99.1765 47.5914 100.443 45.3408 101.324 42.712L101.643 41.7696L102.914 41.62C104.463 43.3966 106.357 44.8807 108.593 46.0382C111.533 47.5635 114.912 48.4296 118.625 48.6039C121.623 48.7475 124.466 48.5182 127.071 47.9117C128.473 47.5866 129.826 47.1509 131.11 46.6305C132.101 47.8308 133.572 48.6374 135.256 48.7189L158.071 49.8268C159.579 49.9059 160.972 49.3776 162.039 48.4811C163.576 49.5614 165.408 50.1843 167.436 50.2838C170.293 50.42 172.853 49.5274 174.84 47.6929C174.975 47.5649 175.097 47.4294 175.225 47.3011C176.085 48.0419 177.016 48.7121 178.039 49.2994C180.799 50.8896 184.022 51.7813 187.627 51.9567C191.231 52.1321 194.491 51.5531 197.39 50.2325C200.442 48.8455 202.908 46.7659 204.719 44.0507C206.508 41.3682 207.497 38.2182 207.668 34.6943C207.839 31.1705 207.157 27.9464 205.638 25.0972L205.631 25.1036Z" fill="white"/>
<path d="M84.9165 37.5425L73.0103 17.8966L83.2834 16.7598L93.8916 36.5538L84.9165 37.5425Z" fill="#191919"/>
<path d="M85.529 49.443C83.6808 49.6502 82.0282 49.6041 80.5844 49.3123C79.1339 49.0201 77.6773 48.4574 76.2075 47.6306L75.5073 41.2712C76.9625 41.9892 78.2947 42.4778 79.5041 42.7304C80.7135 42.9829 82.0147 43.0308 83.4006 42.8805C84.5422 42.7512 85.5128 42.4035 86.3136 41.8173C87.1144 41.2311 87.7269 40.2432 88.1513 38.8469L94.3184 17.3246L104.225 16.2293L95.8872 40.8802C95.2466 42.7921 94.3808 44.3611 93.2902 45.5807C92.1995 46.8002 90.99 47.7095 89.6546 48.315C88.3195 48.9138 86.9418 49.2942 85.5286 49.4498L85.529 49.443Z" fill="#191919"/>
<path d="M118.898 42.8765C116.001 42.7382 113.447 42.091 111.231 40.9413C109.015 39.7917 107.299 38.2427 106.077 36.3008C104.855 34.3588 104.31 32.1214 104.429 29.608C104.547 27.0946 105.29 25.026 106.648 23.2261C108.005 21.4328 109.812 20.0752 112.062 19.1596C114.312 18.244 116.799 17.8475 119.534 17.9841C122.404 18.121 124.818 18.8487 126.776 20.1604C128.74 21.4725 130.206 23.2853 131.172 25.5921C132.139 27.8989 132.552 30.5821 132.406 33.6411L111.963 32.6508L112.224 27.2808L127.263 28.0082L124.431 29.7174C124.372 28.647 124.144 27.7231 123.745 26.9524C123.346 26.1817 122.79 25.5851 122.089 25.1701C121.381 24.7548 120.542 24.5217 119.559 24.4701C118.44 24.4115 117.472 24.5904 116.661 24.987C115.85 25.3835 115.211 25.9648 114.746 26.724C114.287 27.4835 114.032 28.355 113.981 29.3386C113.908 30.733 114.163 31.9217 114.733 32.9041C115.302 33.8931 116.201 34.6697 117.434 35.2342C118.668 35.7988 120.211 36.1296 122.07 36.2203C123.761 36.3089 125.45 36.1812 127.136 35.8508C128.822 35.5203 130.369 34.9934 131.771 34.2699L131.487 40.0845C129.766 41.0953 127.862 41.8467 125.769 42.3314C123.677 42.8162 121.391 43.0004 118.904 42.8836L118.898 42.8765Z" fill="#191919"/>
<path d="M137.061 11.4452L146.44 11.9029L144.908 43.4493L135.53 42.9915L137.061 11.4452Z" fill="#191919"/>
<path d="M150.49 12.0949L159.869 12.5526L158.337 44.099L148.958 43.6413L150.49 12.0949Z" fill="#191919"/>
<path d="M167.716 44.55C166.429 44.4826 165.4 44.0233 164.634 43.1659C163.868 42.3084 163.513 41.2292 163.574 39.9422C163.642 38.6286 164.096 37.5851 164.94 36.8052C165.785 36.0254 166.858 35.6628 168.145 35.7303C169.431 35.7977 170.495 36.2587 171.26 37.1162C172.026 37.9737 172.381 39.0663 172.312 40.3732C172.245 41.6598 171.799 42.697 170.947 43.4765C170.103 44.2563 169.023 44.6185 167.709 44.5497L167.716 44.55ZM171.657 29.031C172.502 28.2512 172.961 27.2148 173.022 25.9278C173.091 24.6142 172.736 23.5283 171.97 22.6708C171.204 21.8133 170.162 21.3466 168.854 21.2848C167.547 21.2231 166.502 21.5804 165.65 22.3598C164.805 23.1397 164.345 24.1896 164.283 25.4968C164.216 26.7835 164.572 27.8559 165.344 28.7205C166.11 29.5779 167.139 30.0439 168.426 30.1046C169.713 30.1653 170.819 29.8112 171.664 29.0314L171.657 29.031Z" fill="#191919"/>
<path d="M187.9 46.2293C185.204 46.1015 182.874 45.466 180.9 44.329C178.933 43.1925 177.426 41.6612 176.385 39.7355C175.344 37.8098 174.886 35.604 175.009 33.1179C175.133 30.6318 175.8 28.4781 177.023 26.6643C178.246 24.8506 179.892 23.4777 181.96 22.5526C184.035 21.6279 186.4 21.2249 189.075 21.3583C191.75 21.4918 194.101 22.1149 196.069 23.238C198.037 24.3611 199.537 25.8853 200.571 27.8106C201.599 29.7356 202.05 31.9411 201.934 34.4276C201.81 36.9137 201.15 39.0677 199.94 40.8822C198.731 42.6966 197.091 44.0765 195.016 45.0148C192.947 45.9534 190.574 46.3627 187.906 46.2296L187.9 46.2293ZM188.258 39C189.464 39.0632 190.506 38.9016 191.37 38.5349C192.24 38.1684 192.911 37.6024 193.39 36.8439C193.876 36.0858 194.14 35.1675 194.19 34.0893C194.247 32.9912 194.068 32.0361 193.657 31.2311C193.254 30.4263 192.638 29.7996 191.81 29.351C190.983 28.9023 189.963 28.6462 188.757 28.583C187.551 28.5198 186.502 28.681 185.619 29.0467C184.742 29.4128 184.057 29.9781 183.578 30.7366C183.099 31.4951 182.827 32.4265 182.777 33.5249C182.726 34.6233 182.901 35.5376 183.304 36.3424C183.708 37.1471 184.337 37.7745 185.171 38.2235C186.006 38.6726 187.039 38.9294 188.246 38.9858L188.258 39Z" fill="#191919"/>
</g>
<g clip-path="url(#clip1_13888_55348)">
<path d="M254.909 20.4975L235.747 38.5555L248.945 43.7462L245.632 56.6567L265.261 39.3951L251.484 33.8476L254.909 20.4975Z" fill="#FFF33E"/>
</g>
<g clip-path="url(#clip2_13888_55348)">
<path d="M12.1286 95.0435L5.60001 115.549L17.0899 114.022L19.8451 124.562L27.0231 104.44L14.9776 105.942L12.1286 95.0435Z" fill="#FFF33E"/>
</g>
<defs>
<clipPath id="clip0_13888_55348">
<rect width="141.079" height="52.4747" fill="white" transform="translate(68.1021 1.99487) rotate(3)"/>
</clipPath>
<clipPath id="clip1_13888_55348">
<rect width="28.7975" height="37.3303" fill="white" transform="translate(241.277 17) rotate(14.3894)"/>
</clipPath>
<clipPath id="clip2_13888_55348">
<rect width="23.5363" height="30.5102" fill="white" transform="translate(1 97.9527) rotate(-14.6501)"/>
</clipPath>
</defs>
</svg>
