<svg width="43" height="43" viewBox="0 0 43 43" fill="none" xmlns="http://www.w3.org/2000/svg">
<circle cx="21.5" cy="21.5" r="21.5" fill="#FBFF3E"/>
<g clip-path="url(#clip0_14186_527)">
<path d="M18.7563 18.5038C19.2394 18.4053 19.8362 18.3179 20.1913 17.9277C20.5696 17.5122 20.4286 16.9161 20.309 16.4691C20.1661 15.9352 19.7888 15.3751 19.2448 15.1251C18.7395 14.8931 18.153 15.0134 17.6714 15.245C17.1655 15.4886 16.6953 15.8716 16.4085 16.3473C16.181 16.7249 16.1113 17.3452 16.2606 17.7612C16.4208 18.2077 16.7017 18.4922 17.1383 18.5888C17.6625 18.7048 18.2371 18.6096 18.7563 18.5038Z" fill="black"/>
<path d="M24.2432 18.5038C23.7601 18.4053 23.1632 18.3179 22.8082 17.9277C22.4299 17.5122 22.5708 16.9161 22.6905 16.4691C22.8334 15.9352 23.2107 15.3751 23.7546 15.1251C24.26 14.8931 24.8464 15.0134 25.3281 15.245C25.8339 15.4886 26.3042 15.8716 26.591 16.3473C26.8184 16.7249 26.8882 17.3452 26.7388 17.7612C26.5786 18.2077 26.2978 18.4922 25.8611 18.5888C25.337 18.7048 24.7624 18.6096 24.2432 18.5038Z" fill="black"/>
<path d="M25.1429 28.0001C24.7884 28.0001 24.459 27.9618 24.1772 27.9288L24.0867 27.9181C23.2391 27.821 22.3426 27.7264 21.5149 27.7244C21.506 27.7244 21.4971 27.7244 21.4882 27.7244C20.6629 27.7244 19.7728 27.8142 18.9327 27.9113L18.8209 27.9244C18.2023 27.9982 17.3553 28.0987 16.5156 27.7604C16.0577 27.5764 14.9931 26.9658 15 25.282C15.0035 24.4384 15.2488 23.5633 15.7091 22.7507C16.2214 21.8469 16.9795 21.0417 17.8443 20.4825C18.8788 19.8137 20.2149 19.4259 21.5089 19.4181C22.8035 19.4098 24.1431 19.8049 25.1899 20.5C26.0666 21.082 26.8162 21.8877 27.3008 22.7687C27.7548 23.5943 27.9966 24.4636 28 25.282C28.007 26.9639 26.9433 27.5754 26.4859 27.7604C26.028 27.9453 25.5677 28.0001 25.1434 28.0001H25.1429ZM21.5228 24.5214C22.5221 24.5238 23.524 24.6287 24.465 24.7364L24.5619 24.7476C24.5851 24.7505 24.6098 24.7534 24.6361 24.7563C24.5851 24.6049 24.5154 24.4481 24.4289 24.2904C24.1935 23.8623 23.8043 23.4477 23.3618 23.1541C22.8589 22.8201 22.1814 22.6221 21.546 22.6221C21.5401 22.6221 21.5342 22.6221 21.5282 22.6221C20.8587 22.626 20.1526 22.8265 19.6393 23.1585C19.2116 23.4346 18.8189 23.854 18.5608 24.3088C18.4772 24.4559 18.4105 24.6054 18.361 24.7524C18.3848 24.7495 18.4075 24.7471 18.4288 24.7442L18.5509 24.7296C19.49 24.6209 20.4947 24.5209 21.4877 24.5209C21.499 24.5209 21.5104 24.5209 21.5223 24.5209L21.5228 24.5214Z" fill="black"/>
</g>
<path d="M43 8.09814C43 11.0798 40.5376 13.4969 37.5 13.4969C34.4624 13.4969 32 11.0798 32 8.09814C32 5.11649 37.5 0 37.5 0C37.5 0 43 5.11649 43 8.09814Z" fill="#70B6FF"/>
<defs>
<clipPath id="clip0_14186_527">
<rect width="13" height="13" fill="white" transform="translate(15 15)"/>
</clipPath>
</defs>
</svg>
