<svg width="1024" height="1024" viewBox="0 0 1024 1024" fill="none" xmlns="http://www.w3.org/2000/svg">
<g clip-path="url(#clip0_3411_97527)">
<rect width="1024" height="1024" rx="170" fill="#191919"/>
<circle cx="277.333" cy="768" r="597.333" fill="#FBFF3E"/>
<g clip-path="url(#clip1_3411_97527)">
<path d="M590.74 453.684C578.155 455.903 567.211 453.932 557.943 447.979C548.638 441.816 542.985 433.059 540.909 421.287C538.834 409.514 541.076 398.931 547.712 389.957C554.138 381.021 563.748 375.425 576.543 373.169C589.337 370.913 600.491 372.848 609.759 378.8C619.064 384.963 624.754 393.93 626.867 405.913C628.98 417.896 626.663 428.059 619.99 436.822C613.354 445.795 603.707 451.181 590.703 453.474L590.74 453.684Z" fill="black"/>
<path d="M457.552 477.174C444.968 479.393 434.023 477.421 424.755 471.469C415.488 465.516 409.798 456.549 407.722 444.776C405.646 433.004 407.889 422.421 414.525 413.447C421.16 404.474 430.771 398.878 443.355 396.659C455.94 394.44 467.304 396.337 476.571 402.29C485.876 408.453 491.566 417.42 493.679 429.403C495.792 441.386 493.475 451.548 486.802 460.312C480.129 469.075 470.519 474.671 457.515 476.964L457.552 477.174Z" fill="black"/>
<path d="M569.745 720.964C544.576 725.402 521.491 724.487 500.872 717.935C480.253 711.383 462.951 700.344 449.351 684.535C435.54 668.762 426.664 649.085 422.512 625.54C418.361 601.995 419.971 580.468 427.555 560.923C434.928 541.415 447.41 525.125 464.582 512.126C481.754 499.127 502.924 490.409 527.884 486.008C552.843 481.607 576.138 482.485 596.72 488.827C617.302 495.168 634.393 506.244 647.994 522.054C661.595 537.863 670.471 557.541 674.623 581.086C678.775 604.631 677.164 626.157 669.79 645.665C662.417 665.173 650.144 681.427 633.01 694.636C615.875 707.845 594.705 716.563 569.745 720.964ZM556.883 648.016C567.37 646.167 575.882 642.932 582.593 638.064C589.304 633.196 593.868 627.189 596.457 619.796C599.046 612.403 599.525 604.082 597.894 594.832C596.263 585.582 592.93 577.716 587.968 571.655C583.007 565.593 576.454 561.546 568.693 559.23C560.721 556.951 551.616 556.822 541.129 558.671C530.641 560.521 522.129 563.756 515.418 568.624C508.707 573.492 503.934 579.536 501.344 586.929C498.755 594.322 498.276 602.643 499.944 612.103C501.612 621.563 504.872 629.009 509.833 635.07C514.795 641.131 521.347 645.178 529.318 647.458C537.29 649.737 546.605 649.829 556.883 648.016Z" fill="black"/>
</g>
</g>
<defs>
<clipPath id="clip0_3411_97527">
<rect width="1024" height="1024" rx="170" fill="white"/>
</clipPath>
<clipPath id="clip1_3411_97527">
<rect width="256" height="341.333" fill="white" transform="translate(384 407.12) rotate(-10)"/>
</clipPath>
</defs>
</svg>
