<svg width="48" height="48" viewBox="0 0 48 48" fill="none" xmlns="http://www.w3.org/2000/svg">
<path d="M44 30C44 31.0609 43.5786 32.0783 42.8284 32.8284C42.0783 33.5786 41.0609 34 40 34H12L5.70711 40.2929C5.07714 40.9229 4 40.4767 4 39.5858V10C4 8.93913 4.42143 7.92172 5.17157 7.17157C5.92172 6.42143 6.93913 6 8 6H40C41.0609 6 42.0783 6.42143 42.8284 7.17157C43.5786 7.92172 44 8.93913 44 10V30Z" fill="#FBFF3E"/>
<g clip-path="url(#clip0_13472_2283)">
<path d="M26.5712 17.1138C26.0846 17.1138 25.6871 16.9675 25.3789 16.6829C25.0706 16.3902 24.9165 16.0244 24.9165 15.5691C24.9165 15.1138 25.0706 14.7317 25.3789 14.439C25.679 14.1463 26.0764 14 26.5712 14C27.066 14 27.4716 14.1463 27.7799 14.4309C28.0881 14.7236 28.2422 15.0976 28.2422 15.561C28.2422 16.0244 28.0881 16.3902 27.7799 16.6748C27.4716 16.9675 27.0742 17.1057 26.5712 17.1057V17.1138Z" fill="black"/>
<path d="M21.4205 17.1138C20.9338 17.1138 20.5363 16.9675 20.2281 16.6829C19.9199 16.3984 19.7657 16.0244 19.7657 15.5691C19.7657 15.1138 19.9199 14.7317 20.2281 14.439C20.5363 14.1463 20.9338 14 21.4205 14C21.9072 14 22.3209 14.1463 22.6291 14.4309C22.9373 14.7236 23.0915 15.0976 23.0915 15.561C23.0915 16.0244 22.9373 16.3902 22.6291 16.6748C22.3209 16.9593 21.9234 17.1057 21.4205 17.1057V17.1138Z" fill="black"/>
<path d="M24.0162 27C23.0428 27 22.183 26.813 21.453 26.4308C20.723 26.0487 20.147 25.5203 19.7415 24.8374C19.3278 24.1544 19.125 23.3577 19.125 22.4471C19.125 21.5365 19.3278 20.7398 19.7415 20.0569C20.147 19.3739 20.723 18.8455 21.453 18.4715C22.183 18.0975 23.0347 17.9105 24 17.9105C24.9653 17.9105 25.8332 18.0975 26.5632 18.4715C27.2933 18.8455 27.8611 19.3739 28.2666 20.0569C28.6722 20.7398 28.875 21.5365 28.875 22.4471C28.875 23.3577 28.6722 24.1544 28.2666 24.8374C27.8611 25.5203 27.2933 26.0487 26.5632 26.4308C25.8332 26.813 24.9815 27 24.0162 27ZM24.0162 24.1788C24.4218 24.1788 24.7625 24.1138 25.0464 23.9756C25.3303 23.8374 25.5412 23.6422 25.6872 23.3821C25.8332 23.1219 25.9062 22.813 25.9062 22.4552C25.9062 22.0975 25.8332 21.7804 25.6872 21.5203C25.5412 21.2601 25.3222 21.065 25.0464 20.9268C24.7625 20.7886 24.4218 20.7235 24.0162 20.7235C23.6106 20.7235 23.27 20.7886 22.9861 20.9268C22.7022 21.065 22.4832 21.2601 22.3371 21.5203C22.1911 21.7804 22.1181 22.0894 22.1181 22.4552C22.1181 22.8211 22.1911 23.1219 22.3371 23.3821C22.4832 23.6422 22.7022 23.8374 22.9861 23.9756C23.27 24.1138 23.6188 24.1788 24.0162 24.1788Z" fill="black"/>
</g>
<defs>
<clipPath id="clip0_13472_2283">
<rect width="9.75" height="13" fill="white" transform="translate(19.125 14)"/>
</clipPath>
</defs>
</svg>
