<svg width="35" height="35" viewBox="0 0 35 35" fill="none" xmlns="http://www.w3.org/2000/svg">
<path d="M15.2648 2.49678C16.4573 1.16477 18.5427 1.16477 19.7352 2.49678L21.4943 4.46175C22.102 5.14061 22.9853 5.50648 23.8951 5.45619L26.5284 5.31061C28.3134 5.21193 29.7881 6.68657 29.6894 8.47163L29.5438 11.1049C29.4935 12.0147 29.8594 12.898 30.5382 13.5057L32.5032 15.2648C33.8352 16.4573 33.8352 18.5427 32.5032 19.7352L30.5382 21.4943C29.8594 22.102 29.4935 22.9853 29.5438 23.8951L29.6894 26.5284C29.7881 28.3134 28.3134 29.7881 26.5284 29.6894L23.8951 29.5438C22.9853 29.4935 22.102 29.8594 21.4943 30.5382L19.7352 32.5032C18.5427 33.8352 16.4573 33.8352 15.2648 32.5032L13.5057 30.5382C12.898 29.8594 12.0147 29.4935 11.1049 29.5438L8.47163 29.6894C6.68657 29.7881 5.21193 28.3134 5.31061 26.5284L5.45619 23.8951C5.50648 22.9853 5.14061 22.102 4.46175 21.4943L2.49678 19.7352C1.16477 18.5427 1.16477 16.4573 2.49678 15.2648L4.46175 13.5057C5.14061 12.898 5.50648 12.0147 5.45619 11.1049L5.31061 8.47163C5.21193 6.68657 6.68657 5.21193 8.47163 5.31061L11.1049 5.45619C12.0147 5.50648 12.898 5.14061 13.5057 4.46175L15.2648 2.49678Z" fill="#FFC073"/>
<path d="M16.9648 24.1758C14.1699 24.1758 12.166 22.6289 12.1133 20.4141H14.7852C14.8379 21.3633 15.752 21.9961 16.9824 21.9961C18.248 21.9961 19.1621 21.2754 19.1445 20.2559C19.1621 19.2188 18.2305 18.4805 16.7363 18.4805H15.5586V16.5293H16.7363C17.9844 16.5293 18.8633 15.8438 18.8633 14.8418C18.8633 13.875 18.125 13.207 17 13.207C15.875 13.207 14.9434 13.8398 14.9082 14.8066H12.377C12.4121 12.6094 14.3984 11.0977 17 11.0977C19.6543 11.0977 21.4297 12.6621 21.4121 14.6836C21.4297 16.1074 20.4277 17.127 19.0039 17.373V17.4785C20.8672 17.707 21.9043 18.8496 21.8867 20.4316C21.9043 22.6113 19.8301 24.1758 16.9648 24.1758Z" fill="#C6832F"/>
</svg>
