<svg width="35" height="35" viewBox="0 0 35 35" fill="none" xmlns="http://www.w3.org/2000/svg">
<path d="M15.2648 2.49678C16.4573 1.16477 18.5427 1.16477 19.7352 2.49678L21.4943 4.46175C22.102 5.14061 22.9853 5.50648 23.8951 5.45619L26.5284 5.31061C28.3134 5.21193 29.7881 6.68657 29.6894 8.47163L29.5438 11.1049C29.4935 12.0147 29.8594 12.898 30.5382 13.5057L32.5032 15.2648C33.8352 16.4573 33.8352 18.5427 32.5032 19.7352L30.5382 21.4943C29.8594 22.102 29.4935 22.9853 29.5438 23.8951L29.6894 26.5284C29.7881 28.3134 28.3134 29.7881 26.5284 29.6894L23.8951 29.5438C22.9853 29.4935 22.102 29.8594 21.4943 30.5382L19.7352 32.5032C18.5427 33.8352 16.4573 33.8352 15.2648 32.5032L13.5057 30.5382C12.898 29.8594 12.0147 29.4935 11.1049 29.5438L8.47163 29.6894C6.68657 29.7881 5.21193 28.3134 5.31061 26.5284L5.45619 23.8951C5.50648 22.9853 5.14061 22.102 4.46175 21.4943L2.49678 19.7352C1.16477 18.5427 1.16477 16.4573 2.49678 15.2648L4.46175 13.5057C5.14061 12.898 5.50648 12.0147 5.45619 11.1049L5.31061 8.47163C5.21193 6.68657 6.68657 5.21193 8.47163 5.31061L11.1049 5.45619C12.0147 5.50648 12.898 5.14061 13.5057 4.46175L15.2648 2.49678Z" fill="#CACACA"/>
<path d="M13.0088 24L12.9912 22.084L17.5615 17.8828C18.7568 16.7402 19.3896 16.0371 19.3896 15.0352C19.3896 13.9102 18.5283 13.207 17.3682 13.207C16.1729 13.207 15.3994 13.9629 15.3994 15.1758H12.8857C12.8682 12.6797 14.7139 11.0977 17.4033 11.0977C20.1279 11.0977 21.9385 12.6445 21.9385 14.8594C21.9385 16.3008 21.2354 17.4961 18.6162 19.8691L16.6826 21.75V21.8203H22.1143V24H13.0088Z" fill="#838383"/>
</svg>
