<svg width="18" height="16" viewBox="0 0 18 16" fill="none" xmlns="http://www.w3.org/2000/svg">
<path d="M9.07749 11.4926L9.07097 10.6104L8.19478 10.5069L8.07751 11.5C8.19478 10.5069 8.1944 10.5069 8.19399 10.5068L8.19307 10.5067L8.19086 10.5064L8.18498 10.5058L8.16744 10.5039C8.15321 10.5024 8.13395 10.5004 8.10995 10.4982C8.06197 10.4937 7.9949 10.4882 7.91106 10.4828C7.74361 10.472 7.50794 10.4619 7.22273 10.4631C6.65586 10.4656 5.87515 10.5131 5.03723 10.6985C3.66582 11.002 2.01378 11.7117 1.00136 13.3129C1.02479 11.7534 1.34268 10.5336 1.80595 9.57619C2.41626 8.31492 3.30978 7.44531 4.24591 6.83956C5.18856 6.2296 6.17022 5.89077 6.92517 5.70558C7.30033 5.61356 7.61298 5.56107 7.82753 5.53189C7.93461 5.51733 8.01668 5.50865 8.06923 5.50377C8.09548 5.50133 8.11431 5.49984 8.12514 5.49904L8.13476 5.49836L8.13523 5.49834L8.13529 5.49833L8.13573 5.4983L8.13593 5.49829L9.07075 5.44636L9.07749 4.50717L9.10141 1.17152L16.0372 7.16155C16.4991 7.56041 16.4991 8.27633 16.0372 8.67519L9.10093 14.6656L9.07749 11.4926Z" stroke="white" stroke-width="2"/>
</svg>
