<svg width="110" height="113" viewBox="0 0 110 113" fill="none" xmlns="http://www.w3.org/2000/svg">
<path d="M80.1966 32.8401C80.4616 31.2676 81.1393 29.958 82.2297 28.9113C83.3259 27.8304 84.9602 26.9984 87.1326 26.4153L91.4346 25.2945C92.3584 25.0283 93.0857 24.6762 93.6165 24.2384C94.153 23.7663 94.476 23.2055 94.5855 22.556C94.8044 21.257 94.4103 20.1535 93.4031 19.2455C92.4018 18.3034 90.8413 17.6537 88.7219 17.2966C86.5341 16.9279 84.71 17.1127 83.2497 17.851C81.8293 18.5609 80.8612 19.7161 80.3455 21.3166L70.3464 19.6317C71.3284 15.4731 73.5565 12.4736 77.0305 10.6333C80.5388 8.79873 84.891 8.31922 90.0871 9.19478C95.3173 10.0761 99.2096 11.8042 101.764 14.3791C104.358 16.9256 105.339 20.079 104.705 23.8393C104.394 25.6853 103.602 27.2568 102.328 28.554C101.055 29.8511 99.2954 30.8026 97.0488 31.4084L92.3446 32.725C91.495 32.9686 90.8248 33.2951 90.3339 33.7045C89.8431 34.114 89.5372 34.6777 89.4162 35.3955L89.2779 36.216L80.1506 34.678C80.1057 34.3189 80.0891 33.9997 80.101 33.7204C80.1187 33.407 80.1506 33.1136 80.1966 32.8401ZM82.3566 48.813C80.6132 48.5193 79.278 47.7845 78.3512 46.6088C77.4585 45.4389 77.1475 44.0506 77.4182 42.4439C77.6947 40.8031 78.4464 39.5762 79.6731 38.7634C80.9341 37.9564 82.4363 37.6998 84.1797 37.9936C85.9231 38.2873 87.2412 39.0192 88.1339 40.1891C89.0265 41.359 89.3346 42.7644 89.0581 44.4053C88.7874 46.012 88.0387 47.2217 86.8119 48.0345C85.5851 48.8473 84.1 49.1068 82.3566 48.813Z" fill="#8364FF"/>
<circle cx="46.4488" cy="66.2467" r="40" transform="rotate(-79.8043 46.4488 66.2467)" fill="#FBFF3E"/>
<path d="M59.6259 43.4727C58.3861 44.0442 57.1833 44.1401 56.0517 43.7733C54.9092 43.3829 54.1011 42.6092 53.5588 41.4263C53.0164 40.2435 52.9586 39.0666 53.3943 37.9775C53.8425 36.8539 54.6857 36.0354 55.949 35.4532C57.2122 34.871 58.415 34.7751 59.5466 35.1418C60.6891 35.5323 61.5081 36.3297 62.0504 37.5125C62.5927 38.6953 62.6289 39.8249 62.204 40.9377C61.7557 42.0613 60.8891 42.8905 59.6259 43.4727Z" fill="#191919"/>
<path d="M46.4548 49.543C45.215 50.1144 44.0121 50.2103 42.8805 49.8436C41.7489 49.4768 40.9299 48.6794 40.3876 47.4966C39.8453 46.3138 39.7874 45.1369 40.2231 44.0477C40.6714 42.9241 41.5146 42.1057 42.7778 41.5234C44.041 40.9412 45.2439 40.8453 46.3755 41.2121C47.5179 41.6025 48.3369 42.3999 48.8792 43.5827C49.4216 44.7656 49.4578 45.8951 49.0329 47.0079C48.608 48.1207 47.718 48.9608 46.4548 49.543Z" fill="#191919"/>
<path d="M67.6224 80.4699C65.2831 81.5481 63.0184 82.0474 60.841 81.9334C58.6635 81.8195 56.6976 81.1782 54.9558 79.9751C53.2141 78.7719 51.8442 77.0822 47.5404 65.4349C46.5317 63.2349 46.1444 61.0923 46.3676 58.9835C46.5909 56.8747 47.3853 54.9611 48.7276 53.2535C50.0699 51.5459 51.899 50.1584 54.2149 49.091C56.5308 48.0236 58.8189 47.5135 60.9855 47.6038C63.1522 47.6941 65.0947 48.3461 66.8364 49.5493C68.5782 50.7524 69.9246 52.4529 70.9333 54.653C71.9421 56.853 75.6245 68.4428 75.4246 70.5408C75.2014 72.6496 74.4303 74.5524 73.0989 76.2837C71.7674 78.0149 69.9383 79.4025 67.6224 80.4699ZM64.6938 74.0826C65.7699 73.5866 66.5721 72.9877 67.1579 72.2878C67.7438 71.5879 68.0558 70.7851 68.1389 69.9157C68.222 69.0464 64.7345 58.685 64.3006 57.7387C63.8667 56.7925 63.2891 56.0271 62.566 55.5007C61.8538 54.9979 61.0429 54.7126 60.1316 54.7028C59.2204 54.6929 58.2213 54.9242 57.1686 55.4094C56.1159 55.8946 55.267 56.5151 54.6811 57.215C54.0952 57.9148 53.7599 58.7285 53.6767 59.5978C53.5936 60.4671 53.7861 61.3814 54.2416 62.375C57.9923 72.8157 58.5374 73.5101 59.2496 74.0129C59.9618 74.5156 60.7727 74.801 61.7074 74.8C62.6187 74.8098 63.6177 74.5786 64.6938 74.0826Z" fill="#191919"/>
</svg>
